<svg xmlns="http://www.w3.org/2000/svg" viewBox="0 0 633.40174 844.70325"><circle cx="236.97493" cy="482.43072" r="92.82571" style="fill:#161616"/><path d="M564.82723,225.36817q-1.55127-2.10636-3.13379-4.19391l-114.892-151.5357a13.50715,13.50715,0,0,0-20.06653-1.601c-17.80151,16.83551-45.33545,55.52991-2.92285,109.87037,8.78467,11.25488,16.624,21.40649,23.61279,30.542L247.34041,4.05854a13.4736,13.4736,0,0,0-19.8208.59094C209.932,25.01484,181.189,73.35432,237.87605,130.04121c10.18653,10.18664,70.34766,70.432,78.68506,78.91442L124.429,67.00159a13.50737,13.50737,0,0,0-19.77954,4.25409C91.2552,94.84662,72.96468,147.29291,138.85384,191.888c24.43164,16.53558,83.54174,66.07324,99.36547,77.21685q-1.37548-.03286-2.73583-.02893a213.75277,213.75277,0,0,0-36.61426,3.27063c-42.187,7.48053-80.80616,28.467-110.873,58.99048L26.11238,394.1598a21.19175,21.19175,0,0,0,.01416,29.80322,69.271,69.271,0,0,0,98.0625.09888l23.46826-23.02729a119.39346,119.39346,0,0,1,88.5625-39.16925c80.4812,0,129.38257,89.239,148.0669,113.61463a10.00142,10.00142,0,0,1,0,12.17682c-18.68433,24.37561-67.5857,113.61468-148.0669,113.61468a119.3054,119.3054,0,0,1-83.19775-33.6394L121.82576,537.495a84.74853,84.74853,0,0,0-119.85254,0,7.4521,7.4521,0,0,0,.20947,10.32074l80.4668,80.46716,13.97022,13.4939a212.03827,212.03827,0,0,0,82.25781,44.45825,56.90081,56.90081,0,0,1,39.71631,70.207v.00013l-24.93946,88.261,311.25879-1.00012L611.54988,558.90076C652.38,446.86805,635.53914,321.38019,564.82723,225.36817Z" style="fill:#161616"/></svg>