<svg xmlns="http://www.w3.org/2000/svg" viewBox="0 0 847.63128 847.63136"><path d="M845.9497,402.91807c-22.07569-3.51471-42.07886-23.9231-61.36756-36.62366-51.43207-33.86511-108.6477-59.1358-169.17486-71.80585a2.49664,2.49664,0,0,1-.50531-1.4115c31.51751-27.9176,67.89966-50.2359,106.66613-66.91394,18.11609-7.79388,43.46747-13.25818,59.4621-28.19549a1.99709,1.99709,0,0,0-2.08453-3.31684c-20.87549,7.994-48.4029.32141-71.4577-1.03326-61.465-3.61145-123.64124,3.109-182.3866,22.39337a2.8948,2.8948,0,0,1-1.16943-.96136c13.33618-39.9361,33.68487-77.45539,58.91864-111.28223,11.792-15.80774,31.01483-33.21564,37.39794-54.14911a1.99708,1.99708,0,0,0-3.46368-1.83014c-14.08173,17.36078-41.75745,24.4798-62.40082,34.83405-55.0542,27.61395-105.55255,64.54016-146.793,110.63507a2.288,2.288,0,0,1-1.4552-.29639c-8.41858-41.25378-9.55572-83.92078-4.61609-125.83264,2.30829-19.58588,10.25177-44.273,5.313-65.59338a1.99708,1.99708,0,0,0-3.91473.14685c-3.51471,22.07574-23.9231,42.07885-36.62366,61.36755-33.86511,51.43207-59.13574,108.6477-71.80591,169.17487a2.49643,2.49643,0,0,1-1.41137.50537c-27.91773-31.51758-50.23584-67.89972-66.91407-106.6662-7.79382-18.116-13.25805-43.46747-28.19543-59.4621a1.99705,1.99705,0,0,0-3.31677,2.08453c7.99389,20.87549.32129,48.403-1.03321,71.45771-3.61157,61.465,3.10889,123.64123,22.39331,182.38659a2.89519,2.89519,0,0,1-.96142,1.16944c-39.936-13.33618-77.45532-33.68488-111.28223-58.91864-15.80761-11.792-33.21557-31.01483-54.149-37.39789a1.99709,1.99709,0,0,0-1.8302,3.46368C65.14885,244.9282,72.26775,272.604,82.622,293.24729c27.614,55.0542,64.54028,105.55255,110.63513,146.793a2.288,2.288,0,0,1-.29639,1.45526C151.707,449.914,109.04,451.05118,67.1281,446.11161c-19.58581-2.30835-44.273-10.25183-65.59338-5.313a1.99709,1.99709,0,0,0,.14685,3.91473c22.07568,3.51471,42.07886,23.9231,61.36755,36.62366,51.432,33.86511,108.64771,59.1358,169.17493,71.80585a2.4975,2.4975,0,0,1,.50537,1.4115c-31.51758,27.9176-67.89978,50.2359-106.66626,66.91394-18.116,7.79388-43.46741,13.25818-59.46216,28.19549a1.99715,1.99715,0,0,0,2.08472,3.31684c20.87549-7.994,48.40283-.32141,71.45752,1.0332,61.46509,3.61151,123.64136-3.10889,182.38672-22.39331a2.8948,2.8948,0,0,1,1.16943.96136c-13.33618,39.9361-33.68494,77.45539-58.9187,111.28223-11.792,15.80774-31.01477,33.21564-37.39795,54.14911a1.99711,1.99711,0,0,0,3.46375,1.83014c14.08166-17.36078,41.75744-24.4798,62.40075-34.83405,55.0542-27.61395,105.55262-64.54016,146.793-110.63507a2.2883,2.2883,0,0,1,1.45526.29639c8.41858,41.25378,9.55573,83.92078,4.61609,125.83264-2.30835,19.58588-10.25183,44.273-5.313,65.59338a1.99709,1.99709,0,0,0,3.91474-.14685c3.51471-22.07574,23.92309-42.07885,36.62365-61.36755,33.86512-51.43207,59.13581-108.64771,71.80585-169.17487a2.49761,2.49761,0,0,1,1.4115-.50537c27.9176,31.51758,50.2359,67.89972,66.914,106.6662,7.79382,18.116,13.25812,43.46747,28.1955,59.4621a1.99706,1.99706,0,0,0,3.31677-2.08453c-7.994-20.87549-.32141-48.403,1.03326-71.45771,3.61151-61.465-3.10894-123.64129-22.39337-182.38666a2.89437,2.89437,0,0,1,.96137-1.16937c39.93609,13.33618,77.45538,33.68488,111.28228,58.91864,15.80768,11.792,33.21558,31.01483,54.14911,37.39789a1.99707,1.99707,0,0,0,1.83008-3.46368c-17.36078-14.08167-24.4798-41.75745-34.834-62.40076-27.614-55.05426-64.54017-105.55273-110.63508-146.793a2.288,2.288,0,0,1,.29639-1.4552c41.25385-8.41852,83.92084-9.55566,125.83264-4.61609,19.58594,2.30835,44.273,10.25183,65.59351,5.31305A1.99711,1.99711,0,0,0,845.9497,402.91807ZM586.72539,426.8577,507.262,506.32206a118.01023,118.01023,0,0,1-166.8927,0L260.90593,426.8577a4.30209,4.30209,0,0,1,0-6.084l79.46338-79.46436a118.01012,118.01012,0,0,1,166.8927,0l79.46338,79.46436A4.30207,4.30207,0,0,1,586.72539,426.8577Z" style="fill:#161616"/><circle cx="423.81565" cy="423.81566" r="92.82574" transform="translate(-175.5502 423.81565) rotate(-45)" style="fill:#161616"/></svg>