<svg xmlns="http://www.w3.org/2000/svg" viewBox="0 0 1393.2554 173.42791"><path d="M167.523,50.22675H99.43647a2.67739,2.67739,0,0,0-2.6774,2.67739v9.51057a2.67739,2.67739,0,0,0,2.6774,2.67739h57.53122a3.47625,3.47625,0,0,1,3.47624,3.47624v33.589a3.47624,3.47624,0,0,1-3.47624,3.47623H99.43647a2.67739,2.67739,0,0,0-2.6774,2.67739V120.5244a2.67739,2.67739,0,0,0,2.6774,2.67739H167.523a3.47624,3.47624,0,0,1,3.47623,3.47624v37.643a3.47623,3.47623,0,0,1-3.47623,3.47623H3.47623A3.47623,3.47623,0,0,1,0,164.321V9.10753A3.47623,3.47623,0,0,1,3.47623,5.6313H167.523a3.47623,3.47623,0,0,1,3.47623,3.47623v37.643A3.47624,3.47624,0,0,1,167.523,50.22675Z" style="fill:#161616"/><path d="M326.99631,5.6313H410.7742a3.47623,3.47623,0,0,1,2.68627,5.68262l-66.32016,80.7448a3.47628,3.47628,0,0,0-.79,2.20639V164.321a3.47623,3.47623,0,0,1-3.47623,3.47623H253.068a3.47623,3.47623,0,0,1-3.47623-3.47623V94.27451a3.47624,3.47624,0,0,0-.80056-2.21923l-66.957-80.72852a3.47623,3.47623,0,0,1,2.67567-5.69546H273.9181a3.47623,3.47623,0,0,1,2.75419,1.35524l11.198,14.541.13974.19456,11.75926,17.58415a1.77971,1.77971,0,0,0,3.04885-.14125c3.18286-5.96374,6.96824-11.90157,10.75613-17.6857q.05391-.08234.11218-.16143L324.19726,7.04611A3.47623,3.47623,0,0,1,326.99631,5.6313Z" style="fill:#161616"/><path d="M595.63239,50.22675H527.54584a2.67739,2.67739,0,0,0-2.67739,2.67739v9.51057a2.67739,2.67739,0,0,0,2.67739,2.67739h57.53123a3.47624,3.47624,0,0,1,3.47623,3.47624v33.589a3.47623,3.47623,0,0,1-3.47623,3.47623H527.54584a2.67739,2.67739,0,0,0-2.67739,2.67739V120.5244a2.67739,2.67739,0,0,0,2.67739,2.67739h68.08655a3.47624,3.47624,0,0,1,3.47623,3.47624v37.643a3.47623,3.47623,0,0,1-3.47623,3.47623H431.58561a3.47623,3.47623,0,0,1-3.47623-3.47623V9.10753a3.47623,3.47623,0,0,1,3.47623-3.47623H595.63239a3.47623,3.47623,0,0,1,3.47623,3.47623v37.643A3.47624,3.47624,0,0,1,595.63239,50.22675Z" style="fill:#161616"/><path d="M852.22325,67.66718v33.364a3.47623,3.47623,0,0,1-3.47623,3.47623H836.84141a3.46677,3.46677,0,0,0-3.40778,2.81466c-8.71994,45.97952-45.49955,66.1058-110.3393,66.1058-69.6664,0-113.99934-32.208-113.99934-86.71364C609.095,34.46086,652.72405,0,730.13121,0c58.40252,0,90.22936,16.39749,99.45108,44.49915A3.48,3.48,0,0,1,826.594,49.039l-77.68416,7.2519a3.44549,3.44549,0,0,1-3.48029-2.01175c-3.2441-7.36145-8.42445-10.35858-17.40947-10.35858-15.12959,0-27.79608,8.33352-27.79608,42.56815,0,32.65854,11.96309,40.99206,27.44413,40.99206,10.72064,0,17.84178-3.84009,20.25572-18.96608a3.47617,3.47617,0,0,0-3.43863-4.0072H725.86668a3.47624,3.47624,0,0,1-3.47624-3.47623v-33.364a3.47625,3.47625,0,0,1,3.47624-3.47624H848.747A3.47624,3.47624,0,0,1,852.22325,67.66718Z" style="fill:#161616"/><path d="M865.72217,86.03872V9.10753A3.47623,3.47623,0,0,1,869.1984,5.6313H959.005a3.47623,3.47623,0,0,1,3.47623,3.47623V94.82219c0,17.56821,4.57377,24.55062,18.99948,24.55062,13.72231,0,18.648-6.53183,18.648-24.55062V9.10753A3.47623,3.47623,0,0,1,1003.605,5.6313h80.30662a3.47623,3.47623,0,0,1,3.47623,3.47623V86.03872c0,55.40621-25.6854,87.38919-109.07361,87.38919C890.35175,173.42791,865.72217,140.76937,865.72217,86.03872Z" style="fill:#161616"/><path d="M1285.6151,5.6313h105.05678a2.58353,2.58353,0,0,1,2.58352,2.58353V165.21371a2.58353,2.58353,0,0,1-2.58352,2.58353h-76.46244a2.58353,2.58353,0,0,1-2.58352-2.58353V117.7961c0-13.17866.2086-25.9569.46521-39.2596a1.78287,1.78287,0,0,0-3.47321-.60394c-4.309,12.94023-8.99,25.79523-13.88081,39.188l-19.7555,49.05824a2.58355,2.58355,0,0,1-2.39651,1.61846h-42.27345a2.58352,2.58352,0,0,1-2.38487-1.59l-20.44827-49.08665c-4.78882-12.09134-8.974-23.92507-12.86007-35.79351a1.78191,1.78191,0,0,0-3.475.58192c.14966,12.0908.14966,23.86157.14966,35.88715v47.41761a2.58353,2.58353,0,0,1-2.58352,2.58353h-76.46195a2.58353,2.58353,0,0,1-2.58352-2.58353V8.21483a2.58353,2.58353,0,0,1,2.58352-2.58353h106.49931a2.58353,2.58353,0,0,1,2.39919,1.62515l19.02667,47.631c.01832.04587.03543.09252.0511.13936,3.777,11.28337,7.27329,21.85558,10.99311,36.71926a1.389,1.389,0,0,0,2.689.02141c3.98332-14.906,7.48794-25.49594,11.2758-36.81117L1283.19851,7.3012A2.58354,2.58354,0,0,1,1285.6151,5.6313Z" style="fill:#161616"/></svg>