<svg xmlns="http://www.w3.org/2000/svg" viewBox="0 0 619.83462 597.34481"><path d="M508.31228,446.65315c20.395-16.51986,111.53284,14.01644,111.52234-55.83049-.0063-45.20972-19.36464-56.54313-51.25533-71.101-36.219-16.53352-16.21894-58.32236,9.11883-80.41414,26.37339-22.9961,37.68422-58.179,14.17924-88.98681-19.727-25.85663-50.5222-17.138-77.74214-13.3873-38.01717,5.23844-42.48731-9.28688-43.734-52.44743-.417-14.41556-11.59862-44.84894-52.61023-59.15474-25.21069-8.79533-42.919-4.76947-61.57256,8.96128-23.26025,17.1217-19.35834,35.572-49.31329,34.4566C268.30187,67.31228,271.21754-11.71649,202.26652,1.487c-67.24005,12.8758-54.52075,94.74463-52.30564,113.89816,2.87681,24.87458-8.309,30.90024-17.88369,33.41521C108.777,154.92108,62.684,121.65921,26.91765,168.6949c-49.9855,65.736,49.24292,88.58138,47.21056,110.25093C70.2536,320.26624-24.60761,323.29534,6.113,406.903c26.96472,73.38649,109.20956,7.90676,117.46923,30.20808,7.15264,19.31317-25.72219,32.754-21.93686,75.5848,2.85685,32.31343,47.03516,68.8964,101.97289,59.24086,76.49857-13.44559,89.19056-70.17778,109.75991-65.96707,30.52,6.24937,26.48892,26.908,53.40952,59.182,19.53584,23.42095,57.22426,41.48793,112.83419,27.01408,23.68878-6.16482,49.3322-32.56079,49.1673-53.99507C528.44785,493.62057,481.23728,468.58476,508.31228,446.65315ZM393.36381,368.27137a118.01028,118.01028,0,0,1-166.8928,0L147.00767,288.807a4.30207,4.30207,0,0,1,0-6.084L226.471,203.25863a118.01028,118.01028,0,0,1,166.8928,0L472.82715,282.723a4.30209,4.30209,0,0,1,0,6.084Z" style="fill:#f9f8ef"/><circle cx="309.91741" cy="285.765" r="92.8257" style="fill:#f9f8ef"/></svg>