<svg width="25" height="25" viewBox="0 0 25 25" fill="none" xmlns="http://www.w3.org/2000/svg">
<path d="M12.4999 1.96344e-09C10.0277 1.1952e-05 7.61094 0.733136 5.55533 2.10666C3.49972 3.48019 1.89757 5.43243 0.951488 7.71651C0.00540399 10.0006 -0.242126 12.5139 0.240201 14.9387C0.722528 17.3634 1.91305 19.5907 3.66121 21.3389C5.40938 23.087 7.63667 24.2775 10.0614 24.7598C12.4862 25.2421 14.9995 24.9946 17.2836 24.0485C19.5677 23.1024 21.5199 21.5002 22.8934 19.4446C24.2669 17.389 25 14.9722 25 12.4999C25 10.8584 24.6767 9.23295 24.0485 7.71638C23.4203 6.1998 22.4996 4.82181 21.3388 3.66108C20.1781 2.50034 18.8001 1.57961 17.2835 0.95144C15.7669 0.323271 14.1415 -2.90918e-05 12.4999 1.96344e-09V1.96344e-09ZM21.0003 12.4999L17.0838 16.4164C16.4819 17.0184 15.7672 17.4959 14.9807 17.8217C14.1942 18.1475 13.3512 18.3152 12.4998 18.3152C11.6485 18.3152 10.8055 18.1475 10.019 17.8217C9.23243 17.4959 8.51777 17.0184 7.9158 16.4164L3.99939 12.4999L7.9158 8.58365C9.13158 7.36793 10.7805 6.68494 12.4998 6.68494C14.2192 6.68494 15.8681 7.36793 17.0838 8.58365L21.0003 12.4999Z" fill="#161616"/>
<path d="M12.4998 15.9698C14.4161 15.9698 15.9696 14.4163 15.9696 12.5C15.9696 10.5836 14.4161 9.03015 12.4998 9.03015C10.5835 9.03015 9.02997 10.5836 9.02997 12.5C9.02997 14.4163 10.5835 15.9698 12.4998 15.9698Z" fill="#161616"/>
</svg>
